# xmcd
#
# Track frame offsets:
#	150
#	11951
#	23727
#	35303
#	51429
#	62104
#	72230
#	83557
#	92857
#	106583
#	119232
#	132433
#	145859
#	157127
#	168752
#	178442
#	190572
#	203642
#	215221
#	228198
#	240010
#	249986
#	261184
#	270523
#	278578
#
# Disc length: 3855 seconds
#
# Revision: 1
# Processed by: cddbd v1.5.2PL0 Copyright (c) Steve Scherf et al.
# Submitted via: audiograbber 1.83.01
#
DISCID=610f0d19
DTITLE=Maxine Brown - The Best of Maxine Brown
DYEAR=2008
DGENRE=R&B - Soul
TTITLE0=Oh No, Not My Baby
TTITLE1=All In My Mind
TTITLE2=It's Gonna Be Alright
TTITLE3=Ask Me
TTITLE4=Funny
TTITLE5=Little Girl Lost
TTITLE6=Baby Cakes
TTITLE7=One Step At A Time
TTITLE8=Coming Back To You
TTITLE9=Something You Got (with Chuck Jackson)
TTITLE10=Since I Found You
TTITLE11=One In A Million
TTITLE12=Yesterday's Kisses
TTITLE13=I Cry Alone
TTITLE14=If You Gotta Make A Fool Of Somebody
TTITLE15=Soul Serenade
TTITLE16=Gotta Find A Way
TTITLE17=It's Torture
TTITLE18=The Secret Of Living
TTITLE19=Love That Man
TTITLE20=Put Yourself In My Place
TTITLE21=You Upset My Soul
TTITLE22=He's The Only Guy I'll Ever Love
TTITLE23=I Got Love
TTITLE24=You're In Love
EXTD=
EXTT0=
EXTT1=
EXTT2=
EXTT3=
EXTT4=
EXTT5=
EXTT6=
EXTT7=
EXTT8=
EXTT9=
EXTT10=
EXTT11=
EXTT12=
EXTT13=
EXTT14=
EXTT15=
EXTT16=
EXTT17=
EXTT18=
EXTT19=
EXTT20=
EXTT21=
EXTT22=
EXTT23=
EXTT24=
PLAYORDER=
